<svg width="36" height="36" viewBox="0 0 36 36" fill="none" xmlns="http://www.w3.org/2000/svg">
<path fill-rule="evenodd" clip-rule="evenodd" d="M17.715 35.43C27.4987 35.43 35.43 27.4987 35.43 17.715C35.43 7.93128 27.4987 0 17.715 0C7.93128 0 0 7.93128 0 17.715C0 27.4987 7.93128 35.43 17.715 35.43ZM10.7746 19.2854H10.1466L10.1424 19.2731L10.1406 19.2679L10.1395 19.2638L10.139 19.2616C10.1387 19.2598 10.1387 19.2579 10.1386 19.256L10.1386 19.2551L10.1385 19.2513L10.1382 19.2419L10.1381 15.5255L10.138 15.5123V15.5123L10.1379 15.5038L10.1377 15.4993C10.1375 15.4949 10.137 15.4905 10.1365 15.4862C10.1362 15.4841 10.1358 15.4818 10.1349 15.4798C10.1341 15.4779 10.133 15.4761 10.1317 15.4745L10.1304 15.4731L10.1275 15.4706L10.1207 15.4644H6.39202C6.39202 15.4303 6.39146 15.3966 6.39091 15.3633V15.3632V15.3632V15.3632V15.3632V15.3631V15.3631V15.3631V15.3631C6.38969 15.2893 6.3885 15.2173 6.39343 15.1457C6.40336 15.0025 6.47497 14.8915 6.60354 14.8258C6.66512 14.7943 6.73347 14.7712 6.80145 14.7578C6.96165 14.7264 7.12441 14.7275 7.28694 14.7383C7.33975 14.7419 7.39254 14.7461 7.4462 14.7505L7.52304 14.7566V13.4282C7.50278 13.4258 7.48278 13.4231 7.46294 13.4205C7.42102 13.4149 7.37983 13.4094 7.33848 13.4062C7.0446 13.3835 6.751 13.3805 6.45761 13.416C6.19927 13.4473 5.94755 13.5039 5.70803 13.6067C5.1786 13.8338 4.8455 14.2228 4.72994 14.7906C4.69039 14.9847 4.68188 15.181 4.68334 15.3782C4.68349 15.3973 4.68346 15.4163 4.68343 15.4367L4.6834 15.4648C4.57269 15.4663 4.4641 15.466 4.35667 15.4658C4.23678 15.4655 4.11834 15.4652 4 15.4675V16.6914H4.67965V19.2854H4.05089V20.5061H7.12793V19.2846H6.39636C6.38117 19.215 6.38312 16.745 6.39745 16.6948H8.42913C8.4427 16.773 8.43933 19.2339 8.42501 19.285C8.32976 19.2857 8.23419 19.2856 8.1386 19.2855C8.0275 19.2853 7.91637 19.2852 7.80569 19.2864C7.79185 19.3986 7.79695 20.4597 7.81062 20.5066H10.7746V19.2854ZM18.3083 17.3638H19.7431C19.7437 17.3595 19.7446 17.3554 19.7454 17.3515C19.7471 17.3438 19.7486 17.3368 19.7476 17.3303C19.7441 17.3087 19.7412 17.2869 19.7383 17.2651L19.7383 17.265C19.7311 17.2109 19.7239 17.1566 19.7081 17.105C19.6483 16.9107 19.5366 16.7517 19.3422 16.6741C19.0756 16.5678 18.8274 16.623 18.6092 16.7995C18.4387 16.9375 18.357 17.1315 18.3056 17.3393L18.3053 17.3412L18.3053 17.344C18.3054 17.3466 18.3059 17.3494 18.3065 17.3527L18.3065 17.3527L18.3066 17.3528L18.308 17.3613L18.3083 17.3638ZM21.4813 19.9234C21.369 20.014 21.2533 20.0886 21.133 20.1566C20.7214 20.3894 20.2798 20.534 19.8116 20.5953C19.2918 20.6633 18.7758 20.6438 18.2774 20.4687C17.3582 20.1458 16.793 19.5007 16.5805 18.5562C16.4516 17.9837 16.504 17.4177 16.7301 16.8765C17.0613 16.0832 17.6625 15.6032 18.5002 15.4154C18.8505 15.3369 19.2051 15.327 19.5605 15.3753C20.0148 15.4371 20.4242 15.6026 20.7674 15.9128C21.0837 16.1988 21.2857 16.5547 21.4004 16.9613C21.4976 17.3058 21.53 17.6571 21.4977 18.0139C21.4949 18.0449 21.4923 18.076 21.4897 18.1071C21.4864 18.1458 21.4832 18.1844 21.4795 18.2231C21.478 18.239 21.4753 18.2548 21.4723 18.2722L21.4723 18.2723L21.4679 18.2989H18.267L18.2674 18.3092L18.2676 18.3179V18.318C18.2677 18.3294 18.2678 18.3389 18.27 18.348C18.3985 18.8867 18.7927 19.1489 19.2248 19.2101C19.481 19.2464 19.7323 19.2163 19.9804 19.1489C20.2747 19.0688 20.5487 18.9433 20.8066 18.7816L20.8178 18.7748L20.8409 18.761L20.841 18.7609L20.8623 18.7483L21.4813 19.9234ZM12.5466 20.5079H14.5552L15.9602 16.6881H16.5231V15.4704H13.8401V16.6927H14.2822L14.2749 16.7194L14.2749 16.7194C14.2706 16.7355 14.2669 16.7491 14.2627 16.7625L13.8716 17.9939L13.8083 18.1923L13.8081 18.1929L13.808 18.1932C13.764 18.3308 13.72 18.4684 13.6771 18.6064C13.625 18.774 13.5958 18.9464 13.5749 19.1203C13.5745 19.1241 13.5744 19.1282 13.5743 19.1324C13.5739 19.1513 13.5735 19.1719 13.5373 19.177L13.5322 19.1483C13.5286 19.1283 13.525 19.1085 13.5225 19.0886C13.4999 18.906 13.464 18.7263 13.408 18.5507C13.2442 18.0377 13.0811 17.5244 12.918 17.0112L12.9178 17.0107L12.8353 16.7509C12.8316 16.7393 12.829 16.7274 12.8257 16.713L12.8202 16.6889H13.2642V15.4724C13.1691 15.459 10.6222 15.4636 10.5754 15.477V16.6903H11.1424L12.5466 20.5079ZM24.2831 19.2851H24.9627V20.5063H21.9001C21.8874 20.4595 21.8829 19.3962 21.896 19.2866C22.0112 19.2848 22.1267 19.2851 22.243 19.2853C22.3522 19.2855 22.4621 19.2858 22.573 19.2843L22.5743 19.2599V19.2598C22.5753 19.2436 22.5762 19.2292 22.5762 19.2149L22.5761 18.5591C22.5758 18.016 22.5756 17.473 22.5775 16.93C22.5781 16.766 22.4987 16.6889 22.3363 16.6905C22.2356 16.6914 22.1349 16.6911 22.0342 16.6908L21.9608 16.6905C21.9463 16.6905 21.9319 16.6896 21.9164 16.6886L21.9164 16.6886L21.8935 16.6873V15.4715L21.9026 15.4703L21.9085 15.4694C21.9196 15.4677 21.9309 15.4659 21.9423 15.4659C22.4781 15.4659 23.0138 15.4658 23.5496 15.4667C23.6466 15.4668 23.7416 15.4825 23.8343 15.5124C24.0378 15.5782 24.1539 15.7196 24.1937 15.9258C24.2032 15.9749 24.2082 16.0256 24.2088 16.0757C24.2105 16.2091 24.2096 16.3426 24.2075 16.4761C24.2073 16.4905 24.2065 16.5048 24.2057 16.5193C24.2038 16.5528 24.2019 16.587 24.2073 16.6232L24.216 16.6017C24.2222 16.5865 24.2284 16.5713 24.2342 16.556C24.3943 16.133 24.6664 15.8036 25.0613 15.5783C25.2763 15.4556 25.5092 15.3907 25.7564 15.3772C25.842 15.3725 25.9267 15.3794 26.0134 15.3978V17.0563C25.9824 17.0541 25.9516 17.0517 25.921 17.0492L25.9209 17.0492C25.8529 17.0438 25.7856 17.0385 25.7182 17.0364C25.5217 17.0305 25.3279 17.0507 25.1404 17.1126C24.7559 17.2396 24.5098 17.5035 24.3797 17.881C24.3091 18.0859 24.2828 18.2983 24.2799 18.5135C24.2776 18.6869 24.278 18.8604 24.2785 19.0338L24.2787 19.1098L24.2789 19.2357C24.2789 19.244 24.2797 19.2523 24.2809 19.2635L24.2831 19.2851ZM30.4392 17.051L30.5186 17.0576V15.3979C30.4323 15.3796 30.3477 15.3725 30.2621 15.3771C29.9962 15.3915 29.7484 15.4658 29.5212 15.6041C29.1434 15.834 28.8844 16.1609 28.7315 16.5733C28.7275 16.5841 28.7229 16.5947 28.7176 16.6071L28.7091 16.6267L28.7111 16.4794L28.7111 16.4792C28.7128 16.3567 28.7144 16.2379 28.7143 16.119C28.7143 16.0602 28.7103 16.0007 28.7008 15.9427C28.6656 15.7274 28.5476 15.5798 28.3363 15.5114C28.2329 15.478 28.1266 15.4657 28.0184 15.4657L27.7084 15.4657L26.4572 15.4659C26.4444 15.4659 26.4315 15.4671 26.4186 15.4683L26.3998 15.4699V16.6907H26.4762L26.5847 16.6906C26.6737 16.6905 26.7627 16.6903 26.8517 16.6911C26.9213 16.6916 26.9883 16.703 27.0361 16.7608C27.0728 16.8052 27.082 16.8586 27.082 16.9147L27.0819 17.9632L27.0817 19.2259C27.0817 19.2381 27.0803 19.2503 27.0788 19.2641L27.0775 19.2753L27.0763 19.2875H26.3995V20.5065H29.4662V19.2862C29.3628 19.285 29.2603 19.2852 29.1582 19.2854C29.0342 19.2857 28.9108 19.2859 28.7873 19.2837L28.7853 19.2658C28.7842 19.2564 28.7834 19.2495 28.7834 19.2425C28.7835 19.169 28.7833 19.0954 28.7831 19.0218C28.7826 18.8394 28.7822 18.6568 28.7852 18.4744C28.7885 18.2835 28.815 18.0951 28.8738 17.9124C29.0059 17.5025 29.2693 17.2224 29.6886 17.0992C29.8799 17.043 30.0764 17.0271 30.2751 17.0386C30.329 17.0418 30.3829 17.0463 30.4392 17.051ZM8.47204 14.1123C8.47394 13.6615 8.83889 13.2988 9.28971 13.2998C9.74178 13.3007 10.1099 13.6707 10.1072 14.1214C10.1044 14.5688 9.7344 14.9322 9.28391 14.9299C8.83178 14.9276 8.4702 14.5634 8.47204 14.1123ZM32.3482 14.7335C32.2199 14.8305 32.0748 14.8797 31.9131 14.8783C31.6983 14.8777 31.5213 14.7932 31.3802 14.6343C31.1199 14.3412 31.1178 13.856 31.3737 13.5584C31.6372 13.252 32.0962 13.2222 32.3978 13.492C32.7633 13.8191 32.7389 14.4381 32.3482 14.7335ZM32.0924 15.17C32.6199 15.0828 32.9938 14.6243 33 14.0883C32.9956 14.0597 32.9918 14.0309 32.988 14.0021C32.9798 13.9399 32.9716 13.8777 32.9568 13.8172C32.7752 13.0735 31.8887 12.7547 31.2792 13.2123C30.8024 13.5704 30.6996 14.2682 31.0605 14.7475C31.3181 15.0898 31.6669 15.2404 32.0924 15.17ZM32.4272 14.5947L32.21 14.1789C32.2109 14.1776 32.2115 14.1765 32.212 14.1755L32.2121 14.1754M31.9304 14.2518L32.0749 14.5947H32.4272M31.543 13.5727C31.5383 13.5736 31.5334 13.5745 31.5282 13.5753V14.5939H31.8515V14.2518H31.9304M31.543 13.5727C31.5524 13.571 31.5609 13.5694 31.5693 13.5694ZM31.5693 13.5694L31.6817 13.5689ZM31.6817 13.5689C31.7979 13.5684 31.9141 13.5678 32.0302 13.5709ZM32.0302 13.5709C32.0817 13.5723 32.1357 13.5833 32.1833 13.6025ZM32.1833 13.6025C32.3087 13.653 32.3656 13.7558 32.374 13.8852ZM32.374 13.8852C32.3817 14.0038 32.3349 14.0981 32.2311 14.1613ZM32.2311 14.1613C32.2255 14.1646 32.22 14.1681 32.2146 14.1719Z" fill="black"/>
</svg>
