<svg width="30" height="30" viewBox="0 0 30 30" fill="none" xmlns="http://www.w3.org/2000/svg">
<path d="M12.6123 12.4868C12.6123 11.34 11.8318 11.34 11.8318 11.34H11.4184H8.62107H8.61987V13.8016H11.6327C12.1536 13.8016 12.6123 13.6356 12.6123 12.4868Z" fill="black"/>
<path d="M20.0535 13.8014C18.3507 13.8014 18.1128 15.5 18.1128 15.5H21.7358C21.7358 15.5013 21.7581 13.8014 20.0535 13.8014Z" fill="black"/>
<path d="M11.8317 15.5012H8.62158V18.4505H11.4653C11.5136 18.4505 11.5849 18.453 11.6699 18.4505C12.1269 18.4391 12.9955 18.3087 12.9955 17.0175C12.9955 15.4868 11.8317 15.5012 11.8317 15.5012Z" fill="black"/>
<path d="M14.9859 0C6.72268 0 0 6.72268 0 14.9859C0 23.2484 6.72268 29.9717 14.9859 29.9717C23.2484 29.9717 29.9717 23.2484 29.9717 14.9859C29.9717 6.72268 23.2496 0 14.9859 0ZM17.6376 10.0294H22.1884V11.3882H17.6376V10.0294ZM15.3365 17.1548C15.3365 20.5212 11.8319 20.4114 11.8319 20.4114H8.62172H8.52755H6.09249V9.37989H8.52755H8.62172H11.8319C13.5769 9.37989 14.9538 10.3439 14.9538 12.3178C14.9538 14.291 13.2709 14.4166 13.2709 14.4166C15.4893 14.416 15.3365 17.1548 15.3365 17.1548ZM23.8509 16.9736H18.1338C18.1338 19.0235 20.0757 18.8944 20.0757 18.8944C21.9084 18.8944 21.8444 17.7076 21.8444 17.7076H23.7874C23.7874 20.8574 20.0124 20.6406 20.0124 20.6406C15.4832 20.6406 15.7742 16.4243 15.7742 16.4243C15.7742 16.4243 15.7699 12.1856 20.0124 12.1856C24.4768 12.1856 23.8496 16.9736 23.8509 16.9736Z" fill="black"/>
</svg>
