<svg width="33" height="33" viewBox="0 0 33 33" fill="none" xmlns="http://www.w3.org/2000/svg">
<g clip-path="url(#clip0)">
<path fill-rule="evenodd" clip-rule="evenodd" d="M25.1254 10.239C26.3991 8.64636 27.2782 6.77035 27.6881 4.78507H28.6172C28.966 4.78507 29.2486 4.50241 29.2486 4.15365V1.24763C29.2486 0.898871 28.966 0.616211 28.6172 0.616211H25.711C25.3624 0.616211 25.0795 0.898871 25.0795 1.24763V4.15365C25.0795 4.50241 25.3624 4.78507 25.711 4.78507H26.3969C25.5911 8.26973 23.17 11.2668 20.0274 12.6473L16.6511 8.70013C16.6474 8.69594 16.6429 8.69199 16.639 8.68755C16.6293 8.67694 16.6197 8.66658 16.6096 8.65697C16.6035 8.65105 16.597 8.64537 16.5909 8.6397C16.581 8.63082 16.5709 8.62243 16.5603 8.61405C16.5536 8.60887 16.547 8.60394 16.5401 8.599C16.529 8.59111 16.5179 8.58346 16.5063 8.57606C16.4996 8.57212 16.493 8.56792 16.4863 8.56398C16.4737 8.55683 16.4606 8.54992 16.4473 8.54351C16.4412 8.54055 16.4352 8.53734 16.4288 8.53463C16.4145 8.52821 16.3997 8.52254 16.3849 8.51712C16.3792 8.51514 16.3738 8.51292 16.3681 8.51095C16.3524 8.50577 16.3361 8.50158 16.3198 8.49763C16.3146 8.4964 16.3097 8.49467 16.3045 8.49368C16.2872 8.48998 16.2697 8.48727 16.252 8.48505C16.2475 8.48431 16.2431 8.48332 16.2384 8.48283C16.2162 8.48061 16.194 8.47913 16.1711 8.47913C16.1484 8.47913 16.1259 8.48061 16.104 8.48283C16.0993 8.48332 16.0949 8.48431 16.0902 8.48505C16.0727 8.48727 16.0552 8.48998 16.0379 8.49368C16.033 8.49467 16.0278 8.4964 16.0226 8.49763C16.0063 8.50158 15.99 8.50577 15.9742 8.51095C15.9686 8.51292 15.9632 8.51514 15.9575 8.51712C15.9427 8.52254 15.9279 8.52821 15.9133 8.53463C15.9072 8.53734 15.901 8.54055 15.8948 8.54351C15.8818 8.55017 15.8687 8.55683 15.8561 8.56398C15.8494 8.56792 15.8428 8.57212 15.8361 8.57606C15.8245 8.58346 15.8132 8.59111 15.8021 8.599C15.7954 8.60394 15.7888 8.60887 15.7821 8.61405C15.7715 8.62243 15.7614 8.63107 15.7515 8.6397C15.7451 8.64537 15.7389 8.65105 15.7328 8.65697C15.7227 8.66658 15.7128 8.67694 15.7034 8.68755C15.6995 8.69199 15.695 8.69594 15.6913 8.70013L12.3123 12.6507C9.12752 11.287 6.75229 8.34643 5.94427 4.78507H6.63119C6.97995 4.78507 7.26261 4.50241 7.26261 4.15365V1.24763C7.26261 0.898871 6.97995 0.616211 6.63119 0.616211H3.72517C3.37641 0.616211 3.09375 0.898871 3.09375 1.24763V4.15365C3.09375 4.50241 3.37641 4.78507 3.72517 4.78507H4.6538C5.06521 6.78909 5.93983 8.67102 7.20341 10.2562C8.37302 11.7236 9.83146 12.8835 11.4576 13.6499L10.1065 15.2294C9.9718 15.3868 9.92272 15.6004 9.9755 15.8007L10.5191 17.8636C10.6079 18.2008 10.9532 18.4021 11.2906 18.3133C11.6278 18.2245 11.8291 17.8792 11.7403 17.5418L11.281 15.7989L15.5397 10.8201V16.0086C14.5765 16.2838 13.8689 17.1715 13.8689 18.222C13.8689 19.4915 14.9018 20.5242 16.1711 20.5242C17.4406 20.5242 18.4733 19.4915 18.4733 18.222C18.4733 17.1715 17.7659 16.2838 16.8025 16.0086V10.8201L21.0611 15.7989L18.8951 24.0197H13.4473L13.0275 22.4274C12.9387 22.0902 12.5932 21.8889 12.256 21.9777C11.9188 22.0665 11.7176 22.4121 11.8064 22.7493L12.329 24.7328V27.8509H11.0825C10.7337 27.8509 10.451 28.1338 10.451 28.4824V32.3136C10.451 32.6623 10.7337 32.945 11.0825 32.945H21.2597C21.6084 32.945 21.8911 32.6623 21.8911 32.3136V28.4824C21.8911 28.1338 21.6084 27.8509 21.2597 27.8509H20.0131V24.733L22.3666 15.8007C22.4194 15.6004 22.3703 15.3868 22.2357 15.2294L20.8806 13.6449C22.4969 12.87 23.9521 11.7058 25.1254 10.239ZM26.3424 3.52223V1.87905H27.9858V3.52223H26.3424ZM4.35659 3.52223V1.87905H5.99977V3.52223H4.35659ZM17.2105 18.222C17.2105 18.7952 16.7443 19.2614 16.1711 19.2614C15.5981 19.2614 15.1317 18.7952 15.1317 18.222C15.1317 17.649 15.5981 17.1826 16.1711 17.1826C16.7443 17.1826 17.2105 17.649 17.2105 18.222ZM13.5921 25.2826H18.7503V27.8509H13.5921V25.2826ZM20.6283 29.1138V31.6821H11.7141V29.1138H20.6283Z" fill="#FB1265"/>
<path fill-rule="evenodd" clip-rule="evenodd" d="M12.4049 20.1451C12.4049 19.7976 12.1213 19.5137 11.7735 19.5137C11.4255 19.5137 11.1421 19.7976 11.1421 20.1451C11.1421 20.4931 11.4255 20.7768 11.7735 20.7768C12.121 20.7768 12.4049 20.4931 12.4049 20.1451Z" fill="#FB1265"/>
</g>
<defs>
<clipPath id="clip0">
<rect width="32.3288" height="32.3288" fill="white" transform="translate(0 0.616211)"/>
</clipPath>
</defs>
</svg>
