<svg width="30" height="30" viewBox="0 0 30 30" fill="none" xmlns="http://www.w3.org/2000/svg">
<g clip-path="url(#clip0)">
<path fill-rule="evenodd" clip-rule="evenodd" d="M23.3157 8.92959C24.4977 7.4517 25.3134 5.71083 25.6938 3.86856H26.556C26.8796 3.86856 27.142 3.60627 27.142 3.28263V0.585936C27.142 0.262298 26.8796 0 26.556 0H23.8591C23.5357 0 23.2732 0.262298 23.2732 0.585936V3.28263C23.2732 3.60627 23.5357 3.86856 23.8591 3.86856H24.4956C23.7479 7.1022 21.5012 9.88335 18.585 11.1644L15.4518 7.50159C15.4484 7.49772 15.4443 7.49406 15.4406 7.48992C15.4317 7.48008 15.4227 7.47048 15.4134 7.46154C15.4076 7.45605 15.4017 7.4508 15.396 7.44552C15.3868 7.4373 15.3774 7.4295 15.3676 7.42173C15.3614 7.41693 15.3552 7.41234 15.3488 7.40775C15.3385 7.40043 15.3282 7.39335 15.3175 7.38648C15.3113 7.38282 15.3051 7.37892 15.2989 7.37526C15.2873 7.36863 15.2751 7.36221 15.2628 7.35627C15.257 7.35351 15.2516 7.35054 15.2456 7.34802C15.2323 7.34208 15.2186 7.3368 15.2048 7.33176C15.1996 7.32993 15.1946 7.32789 15.1893 7.32606C15.1746 7.32123 15.1595 7.31736 15.1444 7.3137C15.1396 7.31256 15.135 7.31094 15.1302 7.31004C15.1142 7.30659 15.098 7.30407 15.0815 7.30203C15.0774 7.30134 15.0732 7.30041 15.0689 7.29996C15.0483 7.29789 15.0277 7.29651 15.0064 7.29651C14.9854 7.29651 14.9645 7.29789 14.9441 7.29996C14.9398 7.30041 14.9357 7.30134 14.9313 7.30203C14.9151 7.30407 14.8988 7.30659 14.8828 7.31004C14.8782 7.31094 14.8734 7.31256 14.8686 7.3137C14.8535 7.31736 14.8384 7.32123 14.8238 7.32606C14.8185 7.32789 14.8135 7.32993 14.8082 7.33176C14.7945 7.3368 14.7807 7.34208 14.7672 7.34802C14.7615 7.35054 14.7558 7.35351 14.7501 7.35627C14.7379 7.36245 14.7258 7.36863 14.7141 7.37526C14.708 7.37892 14.7018 7.38282 14.6956 7.38648C14.6848 7.39335 14.6743 7.40043 14.664 7.40775C14.6578 7.41234 14.6516 7.41693 14.6455 7.42173C14.6356 7.4295 14.6262 7.43751 14.6171 7.44552C14.6111 7.4508 14.6054 7.45605 14.5997 7.46154C14.5903 7.47048 14.5811 7.48008 14.5724 7.48992C14.5688 7.49406 14.5647 7.49772 14.5612 7.50159L11.4256 11.1676C8.47023 9.9021 6.2661 7.17339 5.51628 3.86856H6.15372C6.47736 3.86856 6.73965 3.60627 6.73965 3.28263V0.585936C6.73965 0.262298 6.47736 0 6.15372 0H3.45702C3.13338 0 2.87109 0.262298 2.87109 0.585936V3.28263C2.87109 3.60627 3.13338 3.86856 3.45702 3.86856H4.31877C4.70055 5.72823 5.51217 7.47459 6.68472 8.94561C7.77009 10.3073 9.12345 11.3837 10.6325 12.0948L9.37866 13.5606C9.25368 13.7066 9.20814 13.9048 9.25713 14.0906L9.76158 16.005C9.84399 16.3179 10.1644 16.5047 10.4775 16.4223C10.7904 16.3399 10.9772 16.0194 10.8948 15.7063L10.4686 14.0891L14.4205 9.46884V14.2836C13.5267 14.539 12.87 15.3628 12.87 16.3376C12.87 17.5156 13.8286 18.474 15.0064 18.474C16.1845 18.474 17.1428 17.5156 17.1428 16.3376C17.1428 15.3628 16.4864 14.539 15.5924 14.2836V9.46884L19.5442 14.0891L17.5342 21.7177H12.4789L12.0893 20.24C12.0069 19.9271 11.6863 19.7404 11.3734 19.8228C11.0605 19.9052 10.8737 20.2258 10.9561 20.5387L11.4411 22.3794V25.2729H10.2844C9.96072 25.2729 9.6984 25.5354 9.6984 25.8588V29.4141C9.6984 29.7377 9.96072 30 10.2844 30H19.7285C20.0521 30 20.3144 29.7377 20.3144 29.4141V25.8588C20.3144 25.5354 20.0521 25.2729 19.7285 25.2729H18.5717V22.3796L20.7557 14.0906C20.8047 13.9048 20.7591 13.7066 20.6342 13.5606L19.3767 12.0902C20.8766 11.3711 22.2269 10.2908 23.3157 8.92959ZM24.445 2.69669V1.17188H25.9701V2.69669H24.445ZM4.04298 2.69669V1.17188H5.56779V2.69669H4.04298ZM15.9709 16.3376C15.9709 16.8695 15.5383 17.3021 15.0064 17.3021C14.4747 17.3021 14.0419 16.8695 14.0419 16.3376C14.0419 15.8059 14.4747 15.3731 15.0064 15.3731C15.5383 15.3731 15.9709 15.8059 15.9709 16.3376ZM12.6132 22.8896H17.3998V25.2729H12.6132V22.8896ZM19.1425 26.4448V28.8281H10.8705V26.4448H19.1425Z" fill="black"/>
<path fill-rule="evenodd" clip-rule="evenodd" d="M11.5116 18.1225C11.5116 17.8 11.2484 17.5365 10.9257 17.5365C10.6027 17.5365 10.3397 17.8 10.3397 18.1225C10.3397 18.4454 10.6027 18.7086 10.9257 18.7086C11.2482 18.7086 11.5116 18.4454 11.5116 18.1225Z" fill="black"/>
</g>
<defs>
<clipPath id="clip0">
<rect width="30" height="30" fill="white"/>
</clipPath>
</defs>
</svg>
