<svg width="30" height="30" viewBox="0 0 30 30" fill="none" xmlns="http://www.w3.org/2000/svg">
<path d="M14.9861 0C6.75503 0 0.000244141 6.75479 0.000244141 14.9859C0.000244141 22.0097 4.92891 28.3902 11.4738 29.9717V25.0138C10.8253 25.1558 10.2285 25.1598 9.56831 24.9653C8.68268 24.7039 7.96308 24.114 7.4289 23.2144C7.08843 22.6399 6.48498 22.0171 5.85546 22.0629L5.70111 20.3135C7.06236 20.1969 8.23999 21.1429 8.93902 22.3173C9.24955 22.8396 9.60695 23.1458 10.0657 23.2812C10.509 23.4117 10.9851 23.3491 11.5399 23.1531C11.6791 22.0425 12.1879 21.6268 12.5723 21.0414V21.0405C8.66896 20.4583 7.11335 18.3874 6.49596 16.753C5.67778 14.5827 6.11682 11.8714 7.56359 10.158C7.59172 10.1246 7.64248 10.0373 7.62282 9.97623C6.95946 7.97244 7.7678 6.31484 7.79752 6.13899C8.56309 6.36537 8.68749 5.91124 11.123 7.39094L11.544 7.64384C11.72 7.7488 11.6647 7.68888 11.8408 7.67563C12.8577 7.39939 13.9296 7.24688 14.9858 7.23316C16.0501 7.24688 17.1152 7.39939 18.1741 7.68683L18.3104 7.70055C18.2985 7.69872 18.3474 7.69186 18.4295 7.64293C21.4719 5.8001 21.3627 6.40242 22.1786 6.13717C22.208 6.31323 23.0056 7.99782 22.3493 9.97623C22.2608 10.2488 24.987 12.7452 23.4759 16.7523C22.8586 18.3874 21.3032 20.4583 17.3999 21.0405V21.0414C17.9002 21.804 18.5014 22.2096 18.4982 23.7828V29.9717C25.0432 28.3902 29.9717 22.0097 29.9717 14.9859C29.9719 6.75479 23.2171 0 14.9861 0Z" fill="black"/>
</svg>
