<svg width="30" height="30" viewBox="0 0 30 30" fill="none" xmlns="http://www.w3.org/2000/svg">
<path d="M17.7166 12.8561C16.4339 12.8561 15.861 13.5612 15.5405 14.0561V13.0275H13.1248C13.1561 13.7084 13.1248 20.2959 13.1248 20.2959H15.5405V16.2353C15.5405 16.0185 15.5543 15.8007 15.6196 15.6455C15.7945 15.2109 16.1918 14.7612 16.8594 14.7612C17.7335 14.7612 18.083 15.4276 18.083 16.4055V20.294H20.4988H20.4993V16.126C20.4981 13.8949 19.3059 12.8561 17.7166 12.8561ZM15.5387 14.0815H15.5236C15.5284 14.073 15.5356 14.0652 15.5387 14.0567V14.0815Z" fill="black"/>
<path d="M11.7861 13.0277H9.37036V20.2961H11.7861V13.0277Z" fill="black"/>
<path d="M14.9859 0C6.72268 0 0 6.72268 0 14.9859C0 23.2484 6.72268 29.9717 14.9859 29.9717C23.2484 29.9717 29.9717 23.2484 29.9717 14.9859C29.9717 6.72268 23.2496 0 14.9859 0ZM22.9326 21.764C22.9326 22.4015 22.4039 22.917 21.7502 22.917H8.11949C7.46757 22.917 6.93818 22.4015 6.93818 21.764V7.97462C6.93818 7.33779 7.46757 6.82168 8.11949 6.82168H21.7502C22.4034 6.82168 22.9326 7.33839 22.9326 7.97462V21.764Z" fill="black"/>
<path d="M10.5944 9.52356C9.76864 9.52356 9.22778 10.0656 9.22778 10.7791C9.22778 11.4763 9.75234 12.0347 10.5624 12.0347H10.5781C11.4208 12.0347 11.9453 11.4763 11.9453 10.7791C11.929 10.0662 11.4214 9.52356 10.5944 9.52356Z" fill="black"/>
</svg>
