<svg width="30" height="30" viewBox="0 0 30 30" fill="none" xmlns="http://www.w3.org/2000/svg">
<g clip-path="url(#clip0)">
<path d="M21.1523 6.21106C20.0603 6.21106 19.0146 6.41179 18.0492 6.77731C17.0567 6.40171 16.0124 6.21106 14.9414 6.21106C13.8494 6.21106 12.8036 6.41179 11.8382 6.77731C10.8479 6.40261 9.8037 6.21196 8.73093 6.21106C8.72817 6.21106 8.72544 6.21106 8.72268 6.21106C7.35765 6.21106 6.05781 6.50836 4.85916 7.09498C4.56849 7.23736 4.4481 7.58824 4.59045 7.87891C4.69209 8.08675 4.90035 8.20735 5.1171 8.20735C5.20362 8.20735 5.29152 8.18812 5.37414 8.14762C6.41121 7.6402 7.53753 7.38292 8.72268 7.38292C8.72499 7.38292 8.72748 7.38292 8.73 7.38292C9.26079 7.38337 9.78309 7.43764 10.2933 7.54405C7.80852 9.09862 6.15234 11.8594 6.15234 15.0001C6.15234 18.1408 7.80876 20.9018 10.2935 22.4562C9.78288 22.5631 9.26055 22.6173 8.73048 22.6173C4.53027 22.6173 1.11328 19.2001 1.11328 15.0001C1.11328 13.4529 1.57425 11.9635 2.44652 10.6935C2.62962 10.4268 2.56187 10.062 2.29523 9.87889C2.02835 9.69577 1.66374 9.76354 1.48041 10.0302C0.473556 11.4964 -0.0585938 13.2148 -0.0585938 15.0001C-0.0585938 19.8464 3.88413 23.7892 8.73048 23.7892C9.80142 23.7892 10.8456 23.5985 11.8382 23.2227C12.8036 23.5884 13.8494 23.7892 14.9414 23.7892C16.0124 23.7892 17.0567 23.5985 18.0492 23.2227C19.0146 23.5884 20.0603 23.7892 21.1523 23.7892C25.9987 23.7892 29.9414 19.8464 29.9414 15.0001C29.9414 10.1538 25.9987 6.21106 21.1523 6.21106ZM14.9414 22.6173C10.7412 22.6173 7.32423 19.2001 7.32423 15.0001C7.32423 10.7999 10.7412 7.38292 14.9414 7.38292C15.4715 7.38292 15.9938 7.43716 16.5044 7.54384C14.0197 9.09841 12.3633 11.8592 12.3633 15.0001C12.3633 18.1408 14.0197 20.9018 16.5044 22.4562C15.9938 22.5631 15.4715 22.6173 14.9414 22.6173ZM21.1523 22.6173C16.9521 22.6173 13.5352 19.2001 13.5352 15.0001C13.5352 10.7999 16.9521 7.38292 21.1523 7.38292C25.3526 7.38292 28.7695 10.7999 28.7695 15.0001C28.7695 19.2001 25.3526 22.6173 21.1523 22.6173Z" fill="black"/>
<path d="M21.1524 8.08594C17.3399 8.08594 14.2383 11.1875 14.2383 15C14.2383 18.8123 17.3399 21.9141 21.1524 21.9141C22.0631 21.9141 22.9516 21.7376 23.7932 21.3897C24.0924 21.2661 24.2345 20.9235 24.1111 20.6243C23.9873 20.3254 23.6449 20.183 23.3455 20.3066C22.6465 20.5955 21.9088 20.742 21.1524 20.742C17.986 20.742 15.4102 18.1661 15.4102 15C15.4102 11.8337 17.986 9.25783 21.1524 9.25783C24.3185 9.25783 26.8945 11.8337 26.8945 15C26.8945 16.0064 26.6286 16.9993 26.1253 17.8711C25.9632 18.1513 26.0594 18.5097 26.3395 18.6715C26.6199 18.8333 26.9783 18.7372 27.1399 18.457C27.746 17.4071 28.0664 16.2119 28.0664 15C28.0664 11.1875 24.9648 8.08594 21.1524 8.08594Z" fill="black"/>
<path d="M3.11025 9.60419C3.25491 9.60419 3.39978 9.55085 3.51309 9.44375L3.5259 9.4316C3.76095 9.20915 3.77127 8.83835 3.54879 8.6033C3.32631 8.36822 2.95553 8.35793 2.72046 8.58041L2.70742 8.59253C2.47235 8.81501 2.46228 9.18602 2.68476 9.42086C2.79989 9.54284 2.95507 9.60419 3.11025 9.60419Z" fill="black"/>
<path d="M25.1868 19.0862L25.1772 19.0955C24.9462 19.3223 24.9428 19.6934 25.1696 19.9241C25.2843 20.0411 25.436 20.0996 25.5878 20.0996C25.7359 20.0996 25.8842 20.0436 25.9984 19.9316L26.008 19.9223C26.2387 19.6954 26.2421 19.3244 26.0153 19.0935C25.7888 18.8628 25.4177 18.8593 25.1868 19.0862Z" fill="black"/>
</g>
<defs>
<clipPath id="clip0">
<rect width="30" height="30" fill="white"/>
</clipPath>
</defs>
</svg>
