<svg width="33" height="33" viewBox="0 0 33 33" fill="none" xmlns="http://www.w3.org/2000/svg">
<g clip-path="url(#clip0)">
<path d="M22.7945 6.93945C21.6177 6.93945 20.4908 7.15576 19.4504 7.54966C18.3809 7.14491 17.2555 6.93945 16.1014 6.93945C14.9246 6.93945 13.7977 7.15576 12.7573 7.54966C11.6901 7.1459 10.5649 6.94044 9.40882 6.93945C9.40586 6.93945 9.4029 6.93945 9.39994 6.93945C7.92893 6.93945 6.52821 7.25985 5.23651 7.89201C4.92327 8.04543 4.79353 8.42354 4.94694 8.73678C5.05646 8.96074 5.28091 9.09072 5.51448 9.09072C5.60772 9.09072 5.70243 9.07001 5.79147 9.02635C6.90904 8.47953 8.1228 8.2023 9.39994 8.2023C9.40241 8.2023 9.40512 8.2023 9.40784 8.2023C9.97982 8.20279 10.5427 8.26124 11.0924 8.37594C8.41483 10.0512 6.63008 13.0263 6.63008 16.4108C6.63008 19.7953 8.41507 22.7706 11.0927 24.4456C10.5424 24.5608 9.97957 24.6192 9.40833 24.6192C4.88208 24.6192 1.19985 20.9368 1.19985 16.4108C1.19985 14.7434 1.69661 13.1385 2.63658 11.7698C2.8339 11.4825 2.7609 11.0893 2.47355 10.892C2.18596 10.6947 1.79304 10.7677 1.59548 11.055C0.51047 12.6351 -0.0629883 14.4869 -0.0629883 16.4108C-0.0629883 21.6333 4.18579 25.8821 9.40833 25.8821C10.5624 25.8821 11.6876 25.6766 12.7573 25.2716C13.7977 25.6658 14.9246 25.8821 16.1014 25.8821C17.2555 25.8821 18.3809 25.6766 19.4504 25.2716C20.4908 25.6658 21.6177 25.8821 22.7945 25.8821C28.017 25.8821 32.2658 21.6333 32.2658 16.4108C32.2658 11.1882 28.017 6.93945 22.7945 6.93945ZM16.1014 24.6192C11.5751 24.6192 7.89292 20.9368 7.89292 16.4108C7.89292 11.8845 11.5751 8.2023 16.1014 8.2023C16.6726 8.2023 17.2355 8.26075 17.7858 8.37569C15.1081 10.0509 13.3231 13.026 13.3231 16.4108C13.3231 19.7953 15.1081 22.7706 17.7858 24.4456C17.2355 24.5608 16.6726 24.6192 16.1014 24.6192ZM22.7945 24.6192C18.2682 24.6192 14.586 20.9368 14.586 16.4108C14.586 11.8845 18.2682 8.2023 22.7945 8.2023C27.3207 8.2023 31.0029 11.8845 31.0029 16.4108C31.0029 20.9368 27.3207 24.6192 22.7945 24.6192Z" fill="#FB1265"/>
<path d="M22.7945 8.95996C18.6861 8.95996 15.3438 12.3023 15.3438 16.4107C15.3438 20.5189 18.6861 23.8615 22.7945 23.8615C23.7759 23.8615 24.7334 23.6713 25.6404 23.2964C25.9627 23.1632 26.1159 22.794 25.983 22.4716C25.8495 22.1495 25.4805 21.9961 25.1579 22.1293C24.4046 22.4406 23.6097 22.5984 22.7945 22.5984C19.3824 22.5984 16.6066 19.8226 16.6066 16.4107C16.6066 12.9986 19.3824 10.2228 22.7945 10.2228C26.2064 10.2228 28.9824 12.9986 28.9824 16.4107C28.9824 17.4952 28.6958 18.5652 28.1535 19.5047C27.9788 19.8066 28.0824 20.1928 28.3843 20.3672C28.6865 20.5416 29.0727 20.438 29.2469 20.1361C29.9 19.0047 30.2453 17.7167 30.2453 16.4107C30.2453 12.3023 26.903 8.95996 22.7945 8.95996Z" fill="#FB1265"/>
<path d="M3.35166 10.5959C3.50754 10.5959 3.66367 10.5384 3.78576 10.423L3.79957 10.4099C4.05288 10.1702 4.06398 9.7706 3.82424 9.51729C3.58449 9.26399 3.18492 9.25289 2.93161 9.49263L2.91755 9.5057C2.66425 9.74544 2.65339 10.1453 2.89314 10.3983C3.0172 10.5298 3.18443 10.5959 3.35166 10.5959Z" fill="#FB1265"/>
<path d="M27.1418 20.8138L27.1315 20.8239C26.8826 21.0683 26.8789 21.4681 27.1233 21.7168C27.2469 21.8428 27.4104 21.9059 27.574 21.9059C27.7335 21.9059 27.8934 21.8455 28.0164 21.7249L28.0268 21.7148C28.2754 21.4704 28.2791 21.0705 28.0347 20.8217C27.7905 20.5731 27.3907 20.5694 27.1418 20.8138Z" fill="#FB1265"/>
</g>
<defs>
<clipPath id="clip0">
<rect width="32.3288" height="32.3288" fill="white" transform="translate(0 0.246582)"/>
</clipPath>
</defs>
</svg>
