<svg width="30" height="30" viewBox="0 0 30 30" fill="none" xmlns="http://www.w3.org/2000/svg">
<g clip-path="url(#clip0)">
<path d="M30 22.5V8.49999C29.9984 7.11999 28.88 6.00162 27.5 6H22V0H21V6.909C20.7185 6.43818 20.3828 6.00195 20 5.60901V0H19V5.81649C19 5.95257 19.0554 6.08274 19.1535 6.177C20.3366 7.30326 21.0043 8.86656 21 10.5C21.003 13.8137 18.3192 16.5024 15.0054 16.5054C11.6918 16.5084 9.003 13.8246 9 10.5109C8.99751 7.72869 10.9079 5.3097 13.615 4.66743C13.8406 4.61412 14 4.41276 14 4.18095V3H13V3.79701C11.687 4.18506 10.5173 4.95126 9.63699 6H2.5C1.12 6.00162 0.001625 7.11999 0 8.49999V22.5C0.001625 23.88 1.12 24.9984 2.5 25H10.691L9.69099 27H0.500001C0.223875 27 0 27.2239 0 27.5C0 30 2.6345 30 3.50001 30H26.5C27.3655 30 30 30 30 27.5C30 27.2239 29.7761 27 29.5 27H20.309L19.309 25H27.5C28.88 24.9984 29.9984 23.88 30 22.5ZM13.4759 17.3345C13.9764 17.4454 14.4875 17.501 15 17.5C18.8642 17.4956 21.9956 14.3642 22 10.5V9H27V21H3V9H8.16549C7.33044 12.7679 9.708 16.4994 13.4759 17.3345ZM28.9395 28C28.765 28.6155 28.1615 29 26.5 29H3.50001C1.8385 29 1.235 28.6155 1.0605 28H28.9395ZM10.809 27L11.809 25H18.191L19.191 27H10.809ZM2.5 24C1.67156 24 0.999999 23.3285 0.999999 22.5V8.49999C0.999999 7.67157 1.67156 6.99999 2.5 6.99999H8.93799C8.75331 7.32018 8.59449 7.65456 8.463 8.00001H2.5C2.22388 8.00001 2 8.22387 2 8.49999V21.5C2 21.7761 2.22388 22 2.5 22H27.5C27.7761 22 28 21.7761 28 21.5V8.49999C28 8.22387 27.7761 8.00001 27.5 8.00001H22V6.99999H27.5C28.3284 6.99999 29 7.67157 29 8.49999V22.5C29 23.3285 28.3284 24 27.5 24H2.5Z" fill="black"/>
<path d="M15 7.99976C13.62 8.00138 12.5016 9.11975 12.5 10.4997C12.5 11.8804 13.6193 12.9998 15 12.9998C16.3807 12.9998 17.5 11.8804 17.5 10.4997C17.5 9.11906 16.3807 7.99976 15 7.99976ZM15 11.9997C14.1716 11.9997 13.5 11.3282 13.5 10.4997C13.5 9.67133 14.1716 8.99975 15 8.99975C15.8284 8.99975 16.5 9.67133 16.5 10.4997C16.5 11.3282 15.8284 11.9997 15 11.9997Z" fill="black"/>
<path d="M17 0V3.79251C16.6724 3.69618 16.3382 3.624 16 3.57651V2.5H15V4.02549C14.9993 4.28745 15.2008 4.50555 15.462 4.5255C16.0966 4.57188 16.7196 4.71957 17.3075 4.96299C17.5624 5.06931 17.8551 4.94889 17.9615 4.69407C17.9871 4.63257 18.0002 4.56663 18 4.5V0H17Z" fill="black"/>
<path d="M16 0H15V1.5H16V0Z" fill="black"/>
<path d="M14 1.00024H13V2.00024H14V1.00024Z" fill="black"/>
<path d="M19.5 9.00025H18.708C18.6995 8.97973 18.6915 8.95924 18.683 8.93875L19.243 8.37874C19.4382 8.1835 19.4382 7.867 19.243 7.67173L17.8285 6.25723C17.6301 6.06967 17.3199 6.06967 17.1215 6.25723L16.5615 6.81724L16.5 6.79225V6.00025C16.5 5.7241 16.2761 5.50024 16 5.50024H14C13.7239 5.50024 13.5 5.7241 13.5 6.00025V6.79225L13.4385 6.81724L12.8785 6.25723C12.6833 6.06205 12.3668 6.06205 12.1715 6.25723L10.757 7.67173C10.5618 7.867 10.5618 8.1835 10.757 8.37874L11.317 8.93875C11.3085 8.95924 11.3 8.97973 11.292 9.00025H10.5C10.2239 9.00025 10 9.22411 10 9.50023V11.5002C10 11.7764 10.2239 12.0003 10.5 12.0003H11.292C11.3005 12.0207 11.3085 12.0412 11.317 12.0618L10.757 12.6217C10.5618 12.817 10.5618 13.1335 10.757 13.3287L12.1715 14.7432C12.3699 14.9308 12.6801 14.9308 12.8785 14.7432L13.4385 14.1832L13.5 14.2083V15.0002C13.5 15.2764 13.7239 15.5002 14 15.5002H16C16.2761 15.5002 16.5 15.2764 16.5 15.0002V14.2083L16.5615 14.1832L17.1215 14.7432C17.3168 14.9384 17.6333 14.9384 17.8285 14.7432L19.243 13.3287C19.4382 13.1335 19.4382 12.817 19.243 12.6217L18.683 12.0618C18.6915 12.0412 18.7 12.0207 18.708 12.0003H19.5C19.7761 12.0003 20 11.7764 20 11.5002V9.50023C20 9.22411 19.7761 9.00025 19.5 9.00025ZM19 11.0007H18.353C18.1318 11.0009 17.937 11.1462 17.874 11.3583C17.8158 11.5557 17.7372 11.7465 17.6395 11.9277C17.5339 12.1224 17.5689 12.3633 17.7255 12.5197L18.182 12.9762L17.475 13.6822L17.0185 13.2258C16.862 13.0692 16.6211 13.0342 16.4265 13.1397C16.2453 13.2375 16.0545 13.3161 15.857 13.3743C15.645 13.4373 15.4996 13.632 15.4995 13.8532V14.5002H14.5V13.8532C14.4999 13.632 14.3545 13.4373 14.1425 13.3743C13.9451 13.3161 13.7542 13.2375 13.573 13.1397C13.3784 13.0342 13.1375 13.0692 12.981 13.2258L12.5245 13.6822L11.818 12.9753L12.2745 12.5187C12.4311 12.3622 12.4661 12.1214 12.3605 11.9268C12.2628 11.7456 12.1842 11.5547 12.126 11.3572C12.0628 11.1454 11.868 11.0003 11.647 11.0002H11V10.0002H11.647C11.8682 10.0001 12.063 9.85474 12.126 9.64273C12.1842 9.4453 12.2628 9.25444 12.3605 9.07324C12.4661 8.8786 12.4311 8.63773 12.2745 8.48125L11.818 8.02474L12.525 7.31773L12.9815 7.77424C13.1381 7.93081 13.3789 7.96579 13.5735 7.86025C13.7547 7.76248 13.9456 7.68394 14.143 7.62574C14.3546 7.56256 14.4998 7.36804 14.5 7.14724V6.50023H15.5V7.14724C15.5001 7.36843 15.6455 7.56325 15.8575 7.62625C16.0549 7.68442 16.2458 7.76299 16.427 7.86073C16.6216 7.9663 16.8625 7.93129 17.019 7.77475L17.4755 7.31824L18.1825 8.02525L17.726 8.48173C17.5695 8.63824 17.5344 8.87911 17.64 9.07375C17.7378 9.25492 17.8163 9.44581 17.8745 9.64324C17.9375 9.85525 18.1323 10.0006 18.3535 10.0008H19V11.0007Z" fill="black"/>
<path d="M7.35362 14.3535L6.64664 13.6465L4.14665 16.1465C3.95144 16.3417 3.95144 16.6582 4.14665 16.8535L6.64664 19.3535L7.35362 18.6465L5.20715 16.5L7.35362 14.3535Z" fill="black"/>
<path d="M25.8535 16.1465L23.3535 13.6465L22.6465 14.3535L24.793 16.5L22.6465 18.6465L23.3535 19.3535L25.8535 16.8535C26.0487 16.6582 26.0487 16.3417 25.8535 16.1465Z" fill="black"/>
</g>
<defs>
<clipPath id="clip0">
<rect width="30" height="30" fill="white"/>
</clipPath>
</defs>
</svg>
