<svg width="33" height="34" viewBox="0 0 33 34" fill="none" xmlns="http://www.w3.org/2000/svg">
<g clip-path="url(#clip0)">
<path d="M32.3288 25.1782V10.0915C32.327 8.60433 31.1218 7.39914 29.6347 7.39739H23.7078V0.931641H22.6301V8.37696C22.3267 7.8696 21.965 7.39948 21.5525 6.97604V0.931641H20.4749V7.19965C20.4749 7.34627 20.5346 7.48657 20.6403 7.58813C21.9152 8.80181 22.6348 10.4865 22.6301 12.2467C22.6334 15.8176 19.7412 18.7151 16.1702 18.7183C12.5993 18.7216 9.70186 15.8294 9.69863 12.2584C9.69594 9.26027 11.7547 6.6535 14.6719 5.96139C14.9149 5.90394 15.0867 5.68693 15.0868 5.43713V4.16452H14.0091V5.02338C12.5941 5.44157 11.3337 6.26723 10.3851 7.39739H2.69406C1.20694 7.39914 0.00175114 8.60433 0 10.0915V25.1782C0.00175114 26.6653 1.20694 27.8705 2.69406 27.8723H11.5209L10.4433 30.0275H0.538813C0.241253 30.0275 0 30.2688 0 30.5663C0 33.2604 2.839 33.2604 3.77169 33.2604H28.5571C29.4898 33.2604 32.3288 33.2604 32.3288 30.5663C32.3288 30.2688 32.0875 30.0275 31.79 30.0275H21.8855L20.8079 27.8723H29.6347C31.1218 27.8705 32.327 26.6653 32.3288 25.1782ZM14.522 19.6117C15.0613 19.7312 15.612 19.7911 16.1644 19.7901C20.3285 19.7853 23.703 16.4109 23.7078 12.2467V10.6303H29.0959V23.5618H3.23288V10.6303H8.79935C7.89947 14.6907 10.4616 18.7119 14.522 19.6117ZM31.1859 31.1052C30.9979 31.7684 30.3476 32.1828 28.5571 32.1828H3.77169C1.98121 32.1828 1.33087 31.7684 1.14282 31.1052H31.1859ZM11.6481 30.0275L12.7257 27.8723H19.6031L20.6807 30.0275H11.6481ZM2.69406 26.7947C1.80132 26.7947 1.07763 26.071 1.07763 25.1782V10.0915C1.07763 9.19871 1.80132 8.47502 2.69406 8.47502H9.63182C9.43279 8.82006 9.26165 9.18039 9.11994 9.55264H2.69406C2.3965 9.55264 2.15525 9.7939 2.15525 10.0915V24.1006C2.15525 24.3981 2.3965 24.6394 2.69406 24.6394H29.6347C29.9323 24.6394 30.1735 24.3981 30.1735 24.1006V10.0915C30.1735 9.7939 29.9323 9.55264 29.6347 9.55264H23.7078V8.47502H29.6347C30.5274 8.47502 31.2511 9.19871 31.2511 10.0915V25.1782C31.2511 26.071 30.5274 26.7947 29.6347 26.7947H2.69406Z" fill="#FB1265"/>
<path d="M16.1648 9.55273C14.6776 9.55449 13.4725 10.7597 13.4707 12.2468C13.4707 13.7347 14.6769 14.9409 16.1648 14.9409C17.6526 14.9409 18.8588 13.7347 18.8588 12.2468C18.8588 10.7589 17.6526 9.55273 16.1648 9.55273ZM16.1648 13.8632C15.272 13.8632 14.5483 13.1395 14.5483 12.2468C14.5483 11.3541 15.272 10.6304 16.1648 10.6304C17.0575 10.6304 17.7812 11.3541 17.7812 12.2468C17.7812 13.1395 17.0575 13.8632 16.1648 13.8632Z" fill="#FB1265"/>
<path d="M18.3198 0.931641V5.01854C17.9668 4.91475 17.6066 4.83696 17.2422 4.78577V3.6257H16.1646V5.26962C16.1637 5.55189 16.381 5.78695 16.6624 5.80843C17.3462 5.85841 18.0177 6.01756 18.6512 6.2799C18.9258 6.39446 19.2413 6.26467 19.3559 5.99008C19.3835 5.92381 19.3976 5.85275 19.3974 5.78095V0.931641H18.3198Z" fill="#FB1265"/>
<path d="M17.2422 0.931641H16.1646V2.54808H17.2422V0.931641Z" fill="#FB1265"/>
<path d="M15.0864 2.00928H14.0088V3.0869H15.0864V2.00928Z" fill="#FB1265"/>
<path d="M21.0133 10.6301H20.1598C20.1507 10.608 20.1421 10.5859 20.1329 10.5638L20.7364 9.96034C20.9467 9.74994 20.9467 9.40887 20.7364 9.19846L19.2121 7.67416C18.9983 7.47204 18.664 7.47204 18.4502 7.67416L17.8467 8.27763L17.7804 8.25069V7.39721C17.7804 7.09965 17.5392 6.8584 17.2416 6.8584H15.0864C14.7888 6.8584 14.5476 7.09965 14.5476 7.39721V8.25069L14.4813 8.27763L13.8778 7.67416C13.6674 7.46382 13.3263 7.46382 13.1159 7.67416L11.5916 9.19846C11.3813 9.40887 11.3813 9.74994 11.5916 9.96034L12.1951 10.5638C12.186 10.5859 12.1768 10.608 12.1682 10.6301H11.3147C11.0171 10.6301 10.7759 10.8713 10.7759 11.1689V13.3241C10.7759 13.6217 11.0171 13.863 11.3147 13.863H12.1682C12.1773 13.8851 12.186 13.9071 12.1951 13.9292L11.5916 14.5327C11.3813 14.7431 11.3813 15.0842 11.5916 15.2946L13.1159 16.8189C13.3297 17.021 13.664 17.021 13.8778 16.8189L14.4813 16.2154L14.5476 16.2424V17.0958C14.5476 17.3934 14.7888 17.6347 15.0864 17.6347H17.2416C17.5392 17.6347 17.7804 17.3934 17.7804 17.0958V16.2424L17.8467 16.2154L18.4502 16.8189C18.6606 17.0292 19.0017 17.0292 19.2121 16.8189L20.7364 15.2946C20.9467 15.0842 20.9467 14.7431 20.7364 14.5327L20.1329 13.9292C20.1421 13.9071 20.1512 13.8851 20.1598 13.863H21.0133C21.3109 13.863 21.5521 13.6217 21.5521 13.3241V11.1689C21.5521 10.8713 21.3109 10.6301 21.0133 10.6301ZM20.4745 12.7859H19.7773C19.5389 12.786 19.329 12.9427 19.2611 13.1711C19.1984 13.3839 19.1137 13.5896 19.0084 13.7848C18.8946 13.9946 18.9324 14.2541 19.1011 14.4228L19.593 14.9147L18.8311 15.6755L18.3392 15.1836C18.1705 15.0149 17.911 14.9772 17.7012 15.0909C17.506 15.1963 17.3003 15.2809 17.0875 15.3436C16.8591 15.4115 16.7024 15.6214 16.7023 15.8598V16.557H15.6252V15.8598C15.6251 15.6214 15.4684 15.4115 15.2399 15.3436C15.0272 15.2809 14.8215 15.1963 14.6262 15.0909C14.4165 14.9772 14.1569 15.0149 13.9883 15.1836L13.4963 15.6755L12.735 14.9136L13.2269 14.4217C13.3957 14.253 13.4334 13.9935 13.3196 13.7838C13.2143 13.5885 13.1296 13.3828 13.0669 13.17C12.9988 12.9418 12.7889 12.7854 12.5507 12.7853H11.8535V11.7077H12.5507C12.7891 11.7076 12.999 11.5509 13.0669 11.3225C13.1296 11.1097 13.2143 10.904 13.3196 10.7088C13.4334 10.499 13.3957 10.2394 13.2269 10.0708L12.735 9.57886L13.4969 8.81698L13.9888 9.30892C14.1575 9.47763 14.417 9.51535 14.6268 9.40159C14.822 9.29626 15.0277 9.2116 15.2405 9.14889C15.4685 9.0808 15.6249 8.8712 15.6252 8.63325V7.93602H16.7028V8.63325C16.703 8.8716 16.8596 9.08154 17.0881 9.14943C17.3008 9.21213 17.5065 9.29679 17.7018 9.40213C17.9115 9.51589 18.1711 9.47817 18.3397 9.30946L18.8317 8.81752L19.5935 9.5794L19.1016 10.0713C18.9329 10.24 18.8952 10.4996 19.0089 10.7093C19.1143 10.9045 19.1989 11.1102 19.2616 11.323C19.3295 11.5515 19.5395 11.7081 19.7778 11.7083H20.4745V12.7859Z" fill="#FB1265"/>
<path d="M7.92424 16.3996L7.16236 15.6377L4.4683 18.3318C4.25796 18.5422 4.25796 18.8832 4.4683 19.0936L7.16236 21.7877L7.92424 21.0258L5.61112 18.7127L7.92424 16.3996Z" fill="#FB1265"/>
<path d="M27.8602 18.3318L25.1662 15.6377L24.4043 16.3996L26.7174 18.7127L24.4043 21.0258L25.1662 21.7877L27.8602 19.0936C28.0706 18.8832 28.0706 18.5422 27.8602 18.3318Z" fill="#FB1265"/>
</g>
<defs>
<clipPath id="clip0">
<rect width="32.3288" height="32.3288" fill="white" transform="translate(0 0.931641)"/>
</clipPath>
</defs>
</svg>
